{"title":"Under the Dome S01E06 480p HDTV x264 - VYTO [P2PDL]","uid":8756999,"size":139711685,"categoryP":"video","categoryS":"tv_shows","magnet":"?xt=urn:btih:8983cee28cd7857e2f354c3597cba2cc7fc879c4&amp;dn=Under+the+Dome+S01E06+480p+HDTV+x264+-+VYTO+%5BP2PDL%5D&amp;tr=udp%3A%2F%2Ftracker.openbittorrent.com%3A80&amp;tr=udp%3A%2F%2Fopen.demonii.com%3A1337&amp;tr=udp%3A%2F%2Ftracker.coppersurfer.tk%3A6969&amp;tr=udp%3A%2F%2Fexodus.desync.com%3A6969","seeders":1,"leechers":0,"uploader":"ValidusVyto","files":-1,"time":1375167977,"description":"_______ Visit us at our Semi Public Bittorrent Community ________\n  &lt;a href=&quot;\nhttp://p2pdl.com&quot; rel=&quot;nofollow&quot; target=&quot;_NEW&quot;&gt;\nhttp://p2pdl.com&lt;/a&gt;  _____________________________ &lt;a href=&quot; http://p2pdl.com&quot; rel=&quot;nofollow&quot; target=&quot;_NEW&quot;&gt; http://p2pdl.com&lt;/a&gt;\n\nUnder the Dome S01E06 480p HDTV x264 - VYTO\n\nUnder the Dome S01E06 The Endless Thirst (29 Jul. 2013)\n\n &lt;a href=&quot;\nhttp://www.imdb.com/title/tt2821460/&quot; rel=&quot;nofollow&quot; target=&quot;_NEW&quot;&gt;\nhttp://www.imdb.com/title/tt2821460/&lt;/a&gt;\n\n\nGeneral\nFormat                         : MPEG-4\nFile size                      : 131 MiB\nDuration                       : 41mn 17s\nOverall bit rate mode          : Variable\nOverall bit rate               : 442 Kbps\n\nVideo\nFormat                         : AVC\nBit rate                       : 400 Kbps\nWidth                          : 720 pixels\nHeight                         : 400 pixels\nDisplay aspect ratio           : 16:9\nFrame rate mode                : Constant\nFrame rate                     : 23.976 fps\nBit depth                      : 10 bits\nStream size                    : 118 MiB (90%)\nWriting library                : x264 core 130 r2273 b3065e6\n\nAudio\nFormat                         : AAC\nBit rate                       : 39.8 Kbps\nChannel(s)                     : 2 channels\nChannel positions              : Front: L R\nStream size                    : 11.8 MiB (9%)\n\n\nSubtitle                       : No\n\n &lt;a href=&quot;\nhttp://ultraimg.com/images/961vi.png&quot; rel=&quot;nofollow&quot; target=&quot;_NEW&quot;&gt;\nhttp://ultraimg.com/images/961vi.png&lt;/a&gt; &lt;a href=&quot;\nhttp://ultraimg.com/images/o2c4H.png&quot; rel=&quot;nofollow&quot; target=&quot;_NEW&quot;&gt;\nhttp://ultraimg.com/images/o2c4H.png&lt;/a&gt; &lt;a href=&quot;\nhttp://ultraimg.com/images/7VXO.png&quot; rel=&quot;nofollow&quot; target=&quot;_NEW&quot;&gt;\nhttp://ultraimg.com/images/7VXO.png&lt;/a&gt; &lt;a href=&quot;\nhttp://ultraimg.com/images/Bmbet.png&quot; rel=&quot;nofollow&quot; target=&quot;_NEW&quot;&gt;\nhttp://ultraimg.com/images/Bmbet.png&lt;/a&gt; &lt;a href=&quot;\nhttp://ultraimg.com/images/SsE2w.png&quot; rel=&quot;nofollow&quot; target=&quot;_NEW&quot;&gt;\nhttp://ultraimg.com/images/SsE2w.png&lt;/a&gt;\n\n----------------------------------------------------------------------------------------------------\n\n\nEncoded using revolutionary 10bit encoding, which enables us to provide you more crispier \nand sharper images at small sizes, just make sure you follow our instructions without a fault.\nRecommend to you to use latest version of VLC player. Install K-Lite Codec Pack or shark007 codecs\nin case of any kind of problem in playback (For non-VLC Media Player users). Alternatively, install\nCore AVC codecs, the fastest decoder that there is coupled with Community Center Codec Pack and play\non Windows Media Player Classic. Check sample to be sure.\nEnjoy!\n\nEncoder Notes:Looking For Early Access To Anything You Can Provide DVDScr, R5, DVDR, BluRay, Direct\nAudio, Music Releases and Seedboxes. We require dedicated servers, so as to do more \nand fast releases of movies.\nIf You Got anything to offer please contact us at &quot;&lt;a class=&quot;__cf_email__&quot; href=&quot;/cdn-cgi/l/email-protection&quot; data-cfemail=&quot;c9b9bbae89a1bcbaa1e7aaa6a4&quot;&gt;[email&amp;#160;protected]&lt;/a&gt;&lt;script cf-hash='f9e31' type=&quot;text/javascript&quot;&gt;\n/* &lt;![CDATA[ */!function(){try{var t=&quot;currentScript&quot;in document?document.currentScript:function(){for(var t=document.getElementsByTagName(&quot;script&quot;),e=t.length;e--;)if(t[e].getAttribute(&quot;cf-hash&quot;))return t[e]}();if(t&amp;&amp;t.previousSibling){var e,r,n,i,c=t.previousSibling,a=c.getAttribute(&quot;data-cfemail&quot;);if(a){for(e=&quot;&quot;,r=parseInt(a.substr(0,2),16),n=2;a.length-n;n+=2)i=parseInt(a.substr(n,2),16)^r,e+=String.fromCharCode(i);e=document.createTextNode(e),c.parentNode.replaceChild(e,c)}}}catch(u){}}();/* ]]&gt; */&lt;/script&gt;&quot;.\n\nFace book Fan Page:  \nSearch P2PDL on FB.","torrent":{"xt":"urn:btih:8983cee28cd7857e2f354c3597cba2cc7fc879c4","amp;dn":"Under+the+Dome+S01E06+480p+HDTV+x264+-+VYTO+%5BP2PDL%5D","amp;tr":["udp%3A%2F%2Ftracker.openbittorrent.com%3A80","udp%3A%2F%2Fopen.demonii.com%3A1337","udp%3A%2F%2Ftracker.coppersurfer.tk%3A6969","udp%3A%2F%2Fexodus.desync.com%3A6969"],"infoHash":"8983cee28cd7857e2f354c3597cba2cc7fc879c4","infoHashBuffer":{"type":"Buffer","data":[137,131,206,226,140,215,133,126,47,53,76,53,151,203,162,204,127,200,121,196]},"announce":[],"urlList":[]}}